<svg version="1.1" id="Layer_1" xmlns:x="ns_extend;" xmlns:i="ns_ai;" xmlns:graph="ns_graphs;" xmlns:cc="http://creativecommons.org/ns#" xmlns:dc="http://purl.org/dc/elements/1.1/" xmlns:inkscape="http://www.inkscape.org/namespaces/inkscape" xmlns:rdf="http://www.w3.org/1999/02/22-rdf-syntax-ns#" xmlns:svg="http://www.w3.org/2000/svg" xmlns="http://www.w3.org/2000/svg" xmlns:xlink="http://www.w3.org/1999/xlink" x="0px" y="0px" viewBox="0 0 66.8 48" style="enable-background:new 0 0 66.8 48;" xml:space="preserve">
 <style type="text/css">
  .st0{fill:#FFFFFF;}
 </style>
 <metadata>
  <rdf:RDF>
   <cc:Work rdf:about="">
    <dc:format>
     image/svg+xml
    </dc:format>
    <dc:type rdf:resource="http://purl.org/dc/dcmitype/StillImage">
    </dc:type>
   </cc:Work>
  </rdf:RDF>
  <sfw xmlns="ns_sfw;">
   <slices>
   </slices>
   <sliceSourceBounds bottomLeftOrigin="true" height="48" width="66.8" x="13.2" y="59.4">
   </sliceSourceBounds>
  </sfw>
 </metadata>
 <g transform="matrix(1.25,0,0,-1.25,0,72.625)">
  <g>
   <path inkscape:connector-curvature="0" class="st0" d="M25.9,19.7c-2.3,0.2-3.4,3.9-3.3,8.6c0.2,4.7,1.1,9.1,3.4,9.5l0.9,0.1
			c0.5-5.5,2.3-9.5,5.3-9.8l12,0.1c-0.6-5.2-2.5-8.2-4.6-8.4L25.9,19.7">
   </path>
   <path inkscape:connector-curvature="0" class="st0" d="M25.9,19.7c-2.3,0.2-3.4,3.9-3.3,8.6c0.2,4.7,1.1,9.1,3.4,9.5l0.9,0.1
			c0.5-5.5,2.3-9.5,5.3-9.8l12,0.1c-0.6-5.2-2.5-8.2-4.6-8.4L25.9,19.7">
   </path>
   <path inkscape:connector-curvature="0" class="st0" d="M11.6,36.2c-1.5,0.1-2.2,2.5-2.1,5.5c0.1,3.1,0.7,5.9,2.2,6.1l9.4,1.4
			c0.1,0,0.2,0.1,0.4,0.1c1.3,0,2.2-2.8,2.1-6.5c-0.2-4-1.6-6.3-3-6.5l-8.9-0.1">
   </path>
   <path inkscape:connector-curvature="0" class="st0" d="M11.6,36.2c-1.5,0.1-2.2,2.5-2.1,5.5c0.1,3.1,0.7,5.9,2.2,6.1l9.4,1.4
			c0.1,0,0.2,0.1,0.4,0.1c1.3,0,2.2-2.8,2.1-6.5c-0.2-4-1.6-6.3-3-6.5l-8.9-0.1">
   </path>
   <path inkscape:connector-curvature="0" class="st0" d="M1.5,49c-1,0.1-1.5,1.8-1.5,3.9C0.1,55,0.5,57,1.5,57.2l6.6,0.9
			c0.1,0,0.2,0,0.2,0c0.9,0,1.6-1.9,1.4-4.5c-0.1-2.8-1.1-4.4-2.1-4.5H1.4">
   </path>
   <path inkscape:connector-curvature="0" class="st0" d="M1.5,49c-1,0.1-1.5,1.8-1.5,3.9C0.1,55,0.5,57,1.5,57.2l6.6,0.9
			c0.1,0,0.2,0,0.2,0c0.9,0,1.6-1.9,1.4-4.5c-0.1-2.8-1.1-4.4-2.1-4.5H1.4">
   </path>
   <path inkscape:connector-curvature="0" class="st0" d="M32.9,30.6c-2.5,0.2-3.8,4.4-3.6,9.5c0.2,5.2,1.2,10.1,3.8,10.5l16.2,2.3
			c0.2,0.1,0.4,0.1,0.6,0.1c2.3,0,3.8-4.8,3.5-11.2c-0.3-6.9-2.7-10.9-5.2-11.1L32.9,30.6">
   </path>
   <path inkscape:connector-curvature="0" class="st0" d="M32.9,30.6c-2.5,0.2-3.8,4.4-3.6,9.5c0.2,5.2,1.2,10.1,3.8,10.5l16.2,2.3
			c0.2,0.1,0.4,0.1,0.6,0.1c2.3,0,3.8-4.8,3.5-11.2c-0.3-6.9-2.7-10.9-5.2-11.1L32.9,30.6">
   </path>
  </g>
 </g>
</svg>