<svg version="1.1" id="Layer_1" xmlns:x="ns_extend;" xmlns:i="ns_ai;" xmlns:graph="ns_graphs;" xmlns="http://www.w3.org/2000/svg" xmlns:xlink="http://www.w3.org/1999/xlink" x="0px" y="0px" viewBox="0 0 43.2 43.2" style="enable-background:new 0 0 43.2 43.2;" xml:space="preserve">
 <style type="text/css">
  .st0{fill:#0D1623;}
 </style>
 <metadata>
  <sfw xmlns="ns_sfw;">
   <slices>
   </slices>
   <sliceSourceBounds bottomLeftOrigin="true" height="43.2" width="43.2" x="0" y="0">
   </sliceSourceBounds>
  </sfw>
 </metadata>
 <g>
  <path class="st0" d="M21.6,43.2C9.7,43.2,0,33.6,0,21.6C0,9.7,9.7,0,21.6,0c11.9,0,21.6,9.7,21.6,21.6
		C43.2,33.6,33.5,43.2,21.6,43.2z M21.6,1C10.2,1,1,10.2,1,21.6C1,33,10.2,42.2,21.6,42.2c11.4,0,20.6-9.2,20.6-20.6
		C42.2,10.3,33,1,21.6,1z M39.9,27.8l-0.1,0l-0.1-0.1c0,0,0.7-2.2,0.7-4.6c0-2.6-1.1-4.3-2.5-4.3c-0.8,0-1.4,0.6-1.4,1.5
		c0,1.6,2,1.7,2,5.3c0,1.4-0.3,2.8-0.8,4.3c-2.2,7.5-9.3,11-16.2,11c-3.2,0-5.4-0.7-6.1-1c0,0-0.1-0.1,0-0.1l0.1-0.1
		c0.3,0.1,2.2,0.7,4.6,0.7c2.6,0,4.2-1.1,4.2-2.4c0-0.8-0.7-1.5-1.5-1.5c-1.6,0-1.7,2-5.2,2c-1.5,0-2.8-0.3-4.4-0.8
		c-7.4-2.3-11-9.3-11-16.2c0-3.4,1-6.1,1-6.1l0.1,0l0.1,0.1c-0.1,0.3-0.7,2.2-0.7,4.6c0,2.6,1.1,4.2,2.5,4.2c0.8,0,1.4-0.6,1.4-1.4
		c0-1.6-2-1.8-2-5.3c0-1.5,0.3-2.8,0.8-4.4c2.3-7.4,9.3-10.9,16.2-11c3.2,0,6,0.9,6.1,1l0,0.1l-0.1,0.1c0,0-1.9-0.8-4.6-0.8
		c-2.6,0-4.2,1.1-4.2,2.5c0,0.8,0.6,1.4,1.5,1.4c1.6,0,1.7-2,5.2-2c1.5,0,2.8,0.3,4.4,0.8c7.5,2.3,10.9,9.3,11,16.2
		C40.9,25.1,39.9,27.8,39.9,27.8z M29.6,22.6c-2,0-3.6,1.5-3.6,3.3c0,1.5,0.9,2.7,2.1,2.7c0.4,0,0.8-0.2,0.8-0.8c0-0.8-1-1-1-2.1
		c0.1-0.8,0.8-1.3,1.5-1.3c1.4,0,2.1,1.4,2.1,2.8C31.6,29.5,29.9,31,28,31c-2.5,0-4.1-2.4-4.1-5c0-3.8,2.5-5.3,3.8-5.7
		c0,0,3.4,0.6,3.3-0.9c0-0.7-1-0.9-1.8-0.9c-0.8,0-1.6,0.3-1.6,0.3c-0.4-0.2-0.7-0.6-0.9-1.1C29.3,15.8,31,14,31,12
		c0-1.1-0.7-2-2.1-2c-2.5,0-4.3,3.1-4.3,5.9c0,0.5,0,1,0.1,1.4c-1.6,1.1-2.7,1.8-4.8,3.1c0-0.3,0.1-0.9,0.2-1.8
		c0.7-0.8,1.7-1.9,1.7-2.8c0-0.4-0.2-0.8-0.7-0.8c-1.2,0-2.1,1.8-2.3,3.1c-0.5,0.7-1.6,1.5-2.5,1.5c-0.7,0-1-0.7-1-0.9
		c2.3-0.8,5.1-3.9,5.1-6.7c0-0.6-0.2-1.9-2-1.9c-2.7,0-5,4-5,7.1c-1,0-1.3-1-1.3-1.8c0-0.8,0.3-1.6,0.3-1.8c0-0.2-0.1-0.5-0.5-0.5
		c-0.9,0-1.4,1.2-1.4,2.6c0.1,1.9,1.3,3.1,3,3.2c0.2,1.1,1.3,2.2,2.5,2.2c0.8,0,1.7-0.2,2.4-0.8c-0.1,0.4-0.1,0.8-0.2,1.1
		c-2.6,1.4-4.6,2.3-6.3,3.9c-1.4,1.3-2.2,2.9-2.2,4.2c0,1.8,1.1,3.5,3.5,3.5c2.8,0,4.9-2.2,5.9-5.3c0.5-1.4,0.7-3.5,0.8-5.4
		c2.8-1.6,4.1-2.5,5.5-3.5c0.2,0.3,0.4,0.5,0.6,0.7c-1.3,0.7-4.3,2.5-4.3,6.9c0,3.1,2.1,6.6,6.2,6.6c3.4,0,5.7-2.8,5.7-5.5
		C33.7,24.9,32.3,22.6,29.6,22.6z M13.2,31c-0.9,0-1.5-0.5-1.5-1.5c0-2.6,3.6-5,6.3-6.4C17.5,26.8,16.3,30.9,13.2,31z M15.2,16.9
		c0-2,2-5.7,3.1-5.3C19.7,12,17.1,15.8,15.2,16.9z M26.5,16c0-2.5,1.7-4.8,2.6-4.4C30.1,12.1,28.3,14.4,26.5,16z">
  </path>
 </g>
</svg>