<svg version="1.1" id="Layer_1" xmlns:x="ns_extend;" xmlns:i="ns_ai;" xmlns:graph="ns_graphs;" xmlns="http://www.w3.org/2000/svg" xmlns:xlink="http://www.w3.org/1999/xlink" x="0px" y="0px" viewBox="0 0 254.2 64" style="enable-background:new 0 0 254.2 64;" xml:space="preserve">
 <style type="text/css">
  .st0{fill:#007AFF;}
	.st1{clip-path:url(#SVGID_4_);fill:#007AFF;}
	.st2{clip-path:url(#SVGID_8_);fill:#007AFF;}
	.st3{clip-path:url(#SVGID_10_);fill:#007AFF;}
	.st4{clip-path:url(#SVGID_12_);fill:#007AFF;}
 </style>
 <metadata>
  <sfw xmlns="ns_sfw;">
   <slices>
   </slices>
   <sliceSourceBounds bottomLeftOrigin="true" height="64" width="254.2" x="-62.2" y="-15.6">
   </sliceSourceBounds>
  </sfw>
 </metadata>
 <g>
  <g>
   <g>
    <path id="SVGID_1_" class="st0" d="M133.5,27v35.2c0,1,0.8,1.8,1.8,1.8h9.2c1,0,1.8-0.8,1.8-1.8V27c0-7.8,6.3-14.3,14.3-14.3
				c7.8,0,14.3,6.3,14.3,14.3v35.2c0,1,0.8,1.8,1.8,1.8h9.2c1,0,1.8-0.8,1.8-1.8V27c0-14.9-12.1-27-27-27
				C145.6,0,133.5,12.1,133.5,27">
    </path>
   </g>
   <g>
    <defs>
     <path id="SVGID_2_" d="M133.5,27v35.2c0,1,0.8,1.8,1.8,1.8h9.2c1,0,1.8-0.8,1.8-1.8V27c0-7.8,6.3-14.3,14.3-14.3
					c7.8,0,14.3,6.3,14.3,14.3v35.2c0,1,0.8,1.8,1.8,1.8h9.2c1,0,1.8-0.8,1.8-1.8V27c0-14.9-12.1-27-27-27
					C145.6,0,133.5,12.1,133.5,27">
     </path>
    </defs>
    <clipPath id="SVGID_4_">
     <use href="#SVGID_2_" style="overflow:visible;">
     </use>
    </clipPath>
    <rect x="133.5" class="st1" width="54" height="64">
    </rect>
   </g>
  </g>
  <g>
   <g>
    <path id="SVGID_3_" class="st0" d="M1.8,0C0.8,0,0,0.8,0,1.8V11c0,1,0.8,1.8,1.8,1.8h17c1,0,1.8,0.8,1.8,1.8V62
				c0,1,0.8,1.8,1.8,1.8h9.2c1,0,1.8-0.8,1.8-1.8V14.5c0-1,0.8-1.8,1.8-1.8h17c1,0,1.8-0.8,1.8-1.8V1.8c0-1-0.8-1.8-1.8-1.8H1.8z">
    </path>
   </g>
   <g>
    <defs>
     <path id="SVGID_6_" d="M1.8,0C0.8,0,0,0.8,0,1.8V11c0,1,0.8,1.8,1.8,1.8h17c1,0,1.8,0.8,1.8,1.8V62c0,1,0.8,1.8,1.8,1.8h9.2
					c1,0,1.8-0.8,1.8-1.8V14.5c0-1,0.8-1.8,1.8-1.8h17c1,0,1.8-0.8,1.8-1.8V1.8c0-1-0.8-1.8-1.8-1.8H1.8z">
     </path>
    </defs>
    <clipPath id="SVGID_8_">
     <use xlink:href="#SVGID_6_" style="overflow:visible;">
     </use>
    </clipPath>
    <rect class="st2" width="54" height="64">
    </rect>
   </g>
  </g>
  <g>
   <g>
    <path id="SVGID_5_" class="st0" d="M109.8,0c-1,0-1.8,0.8-1.8,1.8V37c0,7.8-6.3,14.3-14.3,14.3S79.5,45,79.5,37V1.8
				c0-1-0.8-1.8-1.8-1.8h-9.2c-1,0-1.8,0.8-1.8,1.8V37l0,0c0,14.9,12.1,27,27,27s27-12.1,27-27V1.8c0-1-0.8-1.8-1.8-1.8
				C119,0,109.8,0,109.8,0z">
    </path>
   </g>
   <g>
    <defs>
     <path id="SVGID_9_" d="M109.8,0c-1,0-1.8,0.8-1.8,1.8V37c0,7.8-6.3,14.3-14.3,14.3S79.5,45,79.5,37V1.8c0-1-0.8-1.8-1.8-1.8
					h-9.2c-1,0-1.8,0.8-1.8,1.8V37l0,0c0,14.9,12.1,27,27,27s27-12.1,27-27V1.8c0-1-0.8-1.8-1.8-1.8C119,0,109.8,0,109.8,0z">
     </path>
    </defs>
    <clipPath id="SVGID_10_">
     <use xlink:href="#SVGID_9_" style="overflow:visible;">
     </use>
    </clipPath>
    <rect x="66.7" class="st3" width="54" height="64">
    </rect>
   </g>
  </g>
  <g>
   <g>
    <path id="SVGID_7_" class="st0" d="M226.8,0L226.8,0c-14.7,0.2-26.6,12.1-26.6,27v10c0,14.9,11.9,26.8,26.6,27l0,0l0,0h25.6
				c1,0,1.8-0.8,1.8-1.8v-9.4c0-1-0.8-1.8-1.8-1.8h-25.2c-6.7,0-12.1-4.5-13.7-10.6c-0.4-1.2,0.6-2.2,1.8-2.2h37.2
				c1,0,1.8-0.8,1.8-1.8v-9.2c0-1-0.8-1.8-1.8-1.8h-37.2c-1.2,0-2-1.2-1.8-2.2c1.6-6.1,7.2-10.6,13.7-10.6h25.2c1,0,1.8-0.8,1.8-1.8
				V1.8c0-1-0.8-1.8-1.8-1.8H226.8z">
    </path>
   </g>
   <g>
    <defs>
     <path id="SVGID_11_" d="M226.8,0L226.8,0c-14.7,0.2-26.6,12.1-26.6,27v10c0,14.9,11.9,26.8,26.6,27l0,0l0,0h25.6
					c1,0,1.8-0.8,1.8-1.8v-9.4c0-1-0.8-1.8-1.8-1.8h-25.2c-6.7,0-12.1-4.5-13.7-10.6c-0.4-1.2,0.6-2.2,1.8-2.2h37.2
					c1,0,1.8-0.8,1.8-1.8v-9.2c0-1-0.8-1.8-1.8-1.8h-37.2c-1.2,0-2-1.2-1.8-2.2c1.6-6.1,7.2-10.6,13.7-10.6h25.2
					c1,0,1.8-0.8,1.8-1.8V1.8c0-1-0.8-1.8-1.8-1.8H226.8z">
     </path>
    </defs>
    <clipPath id="SVGID_12_">
     <use xlink:href="#SVGID_11_" style="overflow:visible;">
     </use>
    </clipPath>
    <rect x="200.2" class="st4" width="54" height="64">
    </rect>
   </g>
  </g>
 </g>
</svg>